<svg xmlns="http://www.w3.org/2000/svg" width="933.333" height="933.333" preserveAspectRatio="xMidYMid meet" version="1.0" viewBox="0 0 700 700"><metadata>Created by potrace 1.11, written by Peter Selinger 2001-2013</metadata><g fill="#000" stroke="none"><path d="M3425 6995 c-80 -25 -123 -38 -135 -40 -8 -2 -40 -13 -70 -25 -30 -12 -75 -29 -100 -37 -153 -52 -590 -254 -1040 -481 -900 -454 -1608 -867 -1851 -1081 -61 -54 -113 -142 -124 -211 -3 -19 -10 -53 -15 -75 -5 -22 -12 -62 -15 -90 -3 -27 -8 -61 -10 -75 -3 -14 -7 -52 -10 -85 -3 -33 -8 -73 -10 -90 -3 -16 -7 -77 -11 -135 -3 -58 -7 -121 -9 -140 -19 -175 -26 -1219 -12 -1595 10 -256 22 -458 32 -540 2 -16 7 -59 10 -95 4 -36 9 -74 11 -85 2 -11 5 -41 8 -67 10 -84 44 -225 65 -266 30 -59 65 -96 155 -166 196 -153 695 -456 1121 -681 61 -32 115 -61 120 -65 45 -33 894 -460 1110 -559 450 -206 709 -301 838 -307 107 -5 197 21 507 148 69 28 148 61 175 74 116 51 195 87 280 127 104 48 875 435 890 446 6 5 69 39 140 76 72 37 135 71 140 75 6 4 46 27 90 50 81 44 90 49 230 128 182 102 410 241 570 347 235 156 306 216 348 293 31 56 58 165 72 282 3 25 8 52 10 60 3 13 6 42 20 200 2 25 7 83 10 130 3 47 8 102 10 123 26 220 25 1572 0 1875 -2 26 -7 85 -10 132 -3 47 -8 103 -10 125 -2 22 -7 69 -10 105 -4 36 -8 74 -10 85 -2 11 -7 43 -10 70 -12 100 -45 227 -72 277 -31 57 -100 122 -223 208 -47 33 -89 63 -95 68 -75 59 -526 325 -855 505 -151 82 -295 161 -320 175 -106 59 -672 343 -865 434 -359 170 -664 297 -835 348 -64 19 -206 34 -235 25z m144 -205 c196 -36 648 -223 1176 -487 176 -88 436 -222 540 -278 33 -18 96 -52 140 -75 84 -46 374 -211 462 -264 29 -17 78 -46 110 -65 99 -58 342 -219 422 -280 103 -80 155 -130 174 -167 14 -28 14 -33 -2 -58 -58 -88 -325 -279 -699 -500 -528 -312 -1235 -678 -1696 -877 -77 -34 -161 -71 -186 -82 -64 -29 -188 -74 -315 -115 -137 -44 -240 -48 -350 -13 -38 12 -77 24 -85 26 -8 2 -40 13 -70 25 -30 12 -77 30 -105 40 -291 107 -943 422 -1505 728 -643 350 -1117 664 -1179 779 -19 37 34 102 159 197 30 22 60 46 66 51 6 6 49 35 95 65 46 30 86 57 89 60 7 7 82 53 285 175 703 421 1721 924 2155 1064 185 59 232 67 319 51z m2748 -2909 c2 -216 0 -257 -14 -277 -16 -25 -67 -54 -328 -189 -183 -94 -383 -198 -530 -275 -60 -32 -182 -95 -270 -140 -88 -45 -200 -104 -250 -130 -78 -41 -291 -152 -480 -249 -63 -33 -100 -39 -107 -18 -3 6 -4 123 -4 259 l1 248 30 29 c17 16 98 64 180 106 83 43 215 111 295 153 80 41 206 106 280 145 74 38 176 91 225 117 50 26 158 82 240 125 83 43 200 103 260 135 323 169 429 221 449 218 21 -3 21 -6 23 -257z m-3 -487 c3 -9 6 -75 5 -147 -1 -144 -10 -182 -53 -210 -52 -35 -444 -237 -477 -247 -50 -15 -54 -4 -53 147 1 76 2 146 3 155 2 32 50 74 138 120 411 213 423 218 437 182z m-705 -357 c7 -9 10 -66 9 -162 l-2 -149 -36 -35 c-20 -20 -83 -60 -141 -89 -57 -29 -151 -77 -208 -107 -137 -72 -171 -83 -186 -62 -10 13 -14 200 -6 300 2 31 65 80 168 131 54 27 136 70 183 95 93 51 179 90 196 91 6 0 17 -6 23 -13z m709 -247 l-3 -160 -35 -34 c-42 -40 -476 -266 -513 -266 -32 0 -33 6 -32 177 l1 142 29 31 c16 17 41 37 55 44 14 7 95 49 180 94 247 129 253 131 288 132 l33 0 -3 -160z m-1404 -128 c3 -10 4 -79 4 -156 -1 -139 -1 -139 -30 -172 -17 -19 -73 -56 -131 -85 -56 -28 -134 -69 -172 -89 -203 -109 -238 -120 -248 -77 -2 12 -4 83 -3 157 2 183 -15 162 241 295 83 43 170 89 195 103 57 31 112 51 127 45 7 -3 14 -12 17 -21z m703 -217 c1 -77 -2 -155 -8 -172 -15 -47 -31 -57 -336 -214 -184 -94 -215 -105 -234 -77 -3 4 -5 75 -4 156 l1 148 29 31 c48 49 486 275 525 271 l25 -3 2 -140z m692 42 c7 -9 10 -65 8 -165 l-2 -152 -30 -29 c-16 -16 -86 -58 -155 -94 -69 -36 -174 -90 -233 -121 -116 -60 -141 -66 -155 -38 -7 14 -9 214 -3 295 2 30 60 75 166 129 55 28 160 82 233 119 73 38 139 69 146 69 7 0 19 -6 25 -13z m-1403 -270 c18 -11 16 -284 -2 -319 -18 -35 -45 -54 -199 -133 -71 -37 -173 -90 -225 -117 -78 -42 -99 -49 -120 -41 l-25 8 -1 140 c-2 181 6 199 106 253 150 82 430 220 441 219 8 -2 19 -6 25 -10z m712 -222 c2 -71 0 -144 -3 -161 -10 -59 -46 -82 -428 -276 -63 -32 -107 -48 -125 -46 l-27 3 0 157 0 158 32 32 c47 47 480 269 518 265 l30 -2 3 -130z m-710 -238 c6 -7 10 -68 10 -152 -1 -159 -8 -182 -66 -218 -74 -47 -456 -240 -479 -243 -14 -1 -27 5 -32 14 -13 26 -7 293 7 319 16 30 48 50 182 120 63 33 158 83 212 111 122 64 148 71 166 49z m709 -251 c-2 -149 -3 -155 -27 -181 -27 -29 -82 -60 -333 -189 -168 -87 -197 -96 -214 -73 -8 10 -11 201 -4 294 3 45 34 65 351 230 167 87 186 94 212 81 16 -8 17 -25 15 -162z" transform="translate(0.000000,700.000000) scale(0.100000,-0.100000)"/></g></svg>