<?xml version="1.0" encoding="UTF-8" standalone="no"?>
<svg xmlns:rdf="http://www.w3.org/1999/02/22-rdf-syntax-ns#" xmlns="http://www.w3.org/2000/svg" height="22.9248" width="158.872" version="1.1" xmlns:cc="http://creativecommons.org/ns#" xmlns:dc="http://purl.org/dc/elements/1.1/" viewBox="0 0 158.87238 22.924767">
	<g transform="translate(915.833 258.111)">
		<g fill="#797979">
			<path style="" d="m-874.563-242.036v2.16479h-8.25936v-14.1004h2.6231v11.9356h5.63626z"/>
			<path style="" d="m-870.574-249.876v10.0048h-2.41833v-10.0048h2.41833zm0.33154-2.91564q0 0.31204-0.12677 0.58507-0.12676 0.27304-0.34129 0.47782-0.20478 0.20478-0.48757 0.33154-0.28278 0.11702-0.60458 0.11702-0.31204 0-0.59483-0.11702-0.27303-0.12676-0.47781-0.33154t-0.33155-0.47782q-0.11701-0.27303-0.11701-0.58507 0-0.3218 0.11701-0.60459 0.12677-0.28278 0.33155-0.48756t0.47781-0.32179q0.28279-0.12677 0.59483-0.12677 0.3218 0 0.60458 0.12677 0.28279 0.11701 0.48757 0.32179 0.21453 0.20478 0.34129 0.48756 0.12677 0.28279 0.12677 0.60459z"/>
			<path style="" d="m-865.71-242.465q0.40956 0.49732 0.88737 0.7021 0.48757 0.20478 1.02389 0.20478 0.55582 0 0.99463-0.19503 0.44856-0.20478 0.76061-0.62408 0.31204-0.42906 0.47781-1.0824 0.16577-0.66309 0.16577-1.57971 0-1.64797-0.54607-2.37932-0.54607-0.7411-1.56996-0.7411-0.69235 0-1.20916 0.32179-0.51682 0.31204-0.98489 0.88737v4.4856zm0-6.18233q0.60458-0.63383 1.33593-1.00438 0.7411-0.3803 1.68698-0.3803 0.86787 0 1.56021 0.34129 0.70209 0.3413 1.18966 0.98489 0.49732 0.63383 0.7606 1.5407 0.26329 0.90687 0.26329 2.03803 0 1.21891-0.30229 2.21354-0.30229 0.99464-0.86787 1.70648-0.55583 0.7021-1.34568 1.09215-0.78986 0.39005-1.75524 0.39005-0.46806 0-0.84836-0.0975-0.3803-0.0878-0.7021-0.25353-0.32179-0.16578-0.59483-0.39981-0.26328-0.24378-0.50706-0.53632l-0.10727 0.67284q-0.0585 0.25353-0.20478 0.3608-0.13651 0.10726-0.3803 0.10726h-1.58946v-14.4904h2.40857v5.71427z"/>
			<path style="" d="m-854.762-248.14q0.46807-0.89712 1.11165-1.40419 0.64359-0.51682 1.52121-0.51682 0.69234 0 1.11165 0.30229l-0.15602 1.804q-0.0488 0.17552-0.14627 0.25353-0.0878 0.0683-0.24379 0.0683-0.14627 0-0.43881-0.0488-0.28278-0.0488-0.55582-0.0488-0.3998 0-0.71185 0.11701-0.31204 0.11702-0.56557 0.3413-0.24379 0.21453-0.43881 0.52657-0.18528 0.31204-0.35105 0.71184v6.16283h-2.40857v-10.0048h1.41394q0.37055 0 0.51682 0.13652 0.14627 0.12676 0.19502 0.46806l0.14627 1.13115z"/>
			<path style="" d="m-843.58-246.024q0-0.46807-0.13652-0.87762-0.12676-0.41931-0.39005-0.73135t-0.67284-0.48757q-0.3998-0.18527-0.93613-0.18527-1.04339 0-1.64797 0.59483-0.59483 0.59483-0.7606 1.68698h4.54411zm-4.59287 1.45294q0.0585 0.77036 0.27304 1.33593 0.21453 0.55583 0.56558 0.92638 0.35104 0.36079 0.82886 0.54607 0.48756 0.17552 1.07264 0.17552t1.00439-0.13652q0.42905-0.13651 0.7411-0.30229 0.32179-0.16577 0.55582-0.30229 0.24378-0.13652 0.46806-0.13652 0.30229 0 0.44856 0.22428l0.69235 0.87762q-0.39981 0.46807-0.89712 0.78986-0.49732 0.31204-1.04339 0.50707-0.53633 0.18527-1.1019 0.26328-0.55583 0.078-1.0824 0.078-1.04339 0-1.94051-0.34129-0.89712-0.35105-1.56021-1.02389-0.66309-0.68259-1.04339-1.67723-0.3803-1.00438-0.3803-2.32081 0-1.02389 0.33155-1.92101 0.33154-0.90687 0.94587-1.56996 0.62409-0.67284 1.51146-1.06289 0.89712-0.39005 2.01852-0.39005 0.94587 0 1.74548 0.30229t1.37494 0.88737q0.57532 0.57532 0.89712 1.42369 0.33154 0.83861 0.33154 1.92101 0 0.54607-0.11701 0.7411-0.11702 0.18527-0.44856 0.18527h-6.19209z"/>
			<path style="" d="m-830.873-249.876-3.96879 10.0048h-2.18429l-3.96878-10.0048h1.98926q0.27304 0 0.44856 0.12677 0.18528 0.12676 0.24379 0.32179l1.93076 5.34372q0.15602 0.46806 0.27303 0.91662 0.11702 0.44856 0.20478 0.89712 0.0975-0.44856 0.21453-0.89712 0.11702-0.44856 0.28279-0.91662l1.96976-5.34372q0.0683-0.19503 0.24379-0.32179 0.17552-0.12677 0.4193-0.12677h1.90151z"/>
			<path style="" d="m-824.552-244.142q-1.04339 0.0488-1.75523 0.18527-0.71185 0.12677-1.14091 0.33155-0.42905 0.20478-0.61433 0.47781-0.18527 0.27304-0.18527 0.59483 0 0.63384 0.37055 0.90687 0.3803 0.27304 0.98488 0.27304 0.7411 0 1.27742-0.26328 0.54607-0.27304 1.06289-0.81911v-1.68698zm-5.51924-4.33933q1.72598-1.57972 4.15406-1.57972 0.87762 0 1.56996 0.29254 0.69234 0.28279 1.17016 0.79961 0.47781 0.50707 0.7216 1.21891 0.25353 0.71185 0.25353 1.56021v6.31885h-1.09215q-0.34129 0-0.52657-0.0975-0.18527-0.10726-0.29254-0.41931l-0.21453-0.72159q-0.3803 0.34129-0.7411 0.60458-0.36079 0.25353-0.75085 0.42906-0.39005 0.17552-0.83861 0.26328-0.43881 0.0975-0.97513 0.0975-0.63384 0-1.17016-0.16577-0.53632-0.17552-0.92637-0.51682-0.39006-0.34129-0.60458-0.84836-0.21453-0.50707-0.21453-1.17991 0-0.3803 0.12676-0.75085 0.12677-0.3803 0.40956-0.7216 0.29254-0.34129 0.75085-0.64358 0.45831-0.3023 1.1214-0.52658 0.67284-0.22428 1.56021-0.36079 0.88737-0.14627 2.02827-0.17553v-0.58508q0-1.00438-0.42905-1.4822-0.42906-0.48756-1.23842-0.48756-0.58508 0-0.97513 0.13652-0.3803 0.13652-0.67284 0.31204-0.29254 0.16577-0.53632 0.30229-0.23404 0.13652-0.52658 0.13652-0.25353 0-0.42905-0.12677-0.17553-0.13652-0.28279-0.31204l-0.42906-0.77035z"/>
			<path style="" d="m-811.313-249.876v10.0048h-1.47245q-0.47782 0-0.60458-0.43881l-0.16577-0.7996q-0.61434 0.62408-1.35544 1.01413-0.7411 0.3803-1.74548 0.3803-0.81911 0-1.45295-0.27303-0.62408-0.28279-1.05314-0.78986t-0.65334-1.19941q-0.21453-0.70209-0.21453-1.54071v-6.35785h2.40858v6.35785q0 0.91663 0.41931 1.42369 0.42905 0.49732 1.27742 0.49732 0.62408 0 1.17015-0.27304 0.54608-0.28278 1.03364-0.77035v-7.23547h2.40858z"/>
			<path style="" d="m-806.487-254.361v14.4904h-2.40857v-14.4904h2.40857z"/>
			<path style="" d="m-800.752-239.715q-1.30668 0-2.00877-0.73134-0.69235-0.7411-0.69235-2.03803v-5.5875h-1.02389q-0.19502 0-0.33154-0.12677-0.13652-0.12676-0.13652-0.3803v-0.95563l1.60897-0.26328 0.50707-2.73037q0.0487-0.19502 0.18527-0.30229 0.13652-0.10726 0.35105-0.10726h1.24817v3.14967h2.67186v1.71623h-2.67186v5.42173q0 0.46806 0.22428 0.73135 0.23403 0.26328 0.63383 0.26328 0.22428 0 0.37055-0.0487 0.15602-0.0585 0.26329-0.11702 0.11701-0.0585 0.20477-0.10726 0.0878-0.0585 0.17553-0.0585 0.10726 0 0.17552 0.0585 0.0683 0.0488 0.14627 0.15602l0.7216 1.17016q-0.52657 0.4388-1.20916 0.66308-0.6826 0.22428-1.41394 0.22428z"/>
			<g fill="#797979">
				<path d="m-792.871-253.793h3.81863q2.58067 0 3.79006 0.8761 1.20939 0.87609 1.20939 2.64732 0 1.2094-0.74278 2.01883-0.73325 0.79991-2.15214 1.02846v0.0571q1.66648 0.24759 2.44735 1.05702 0.79039 0.79991 0.79039 2.23785 0 1.9236-1.27605 2.96158t-3.61865 1.03798h-4.2662v-13.9223zm0.97132 6.19932h3.06633q1.96169 0 2.84731-0.64755 0.89514-0.65707 0.89514-2.04739t-1.00942-2.01883q-0.99989-0.6285-2.99014-0.6285h-2.80922v5.34227zm0 0.85705v6.00886h3.27583q3.86624 0 3.86624-3.14251 0-2.86635-4.07574-2.86635h-3.06633z"/>
				<path d="m-779.939-239.871h-0.94276v-14.8174h0.94276v14.8174z"/>
				<path d="m-767.902-245.061q0 2.53305-1.22843 3.96147-1.22844 1.41889-3.39011 1.41889-1.36175 0-2.39973-0.65707t-1.59031-1.88551q-0.55232-1.22844-0.55232-2.83778 0-2.53306 1.22844-3.94243 1.22844-1.41889 3.37106-1.41889 2.1331 0 3.34249 1.43794 1.21891 1.42841 1.21891 3.92338zm-8.17053 0q0 2.1331 0.93323 3.33296 0.94276 1.19035 2.65685 1.19035 1.7141 0 2.64733-1.19035 0.94276-1.19986 0.94276-3.33296 0-2.14263-0.95228-3.32345-0.94275-1.18082-2.65685-1.18082t-2.64733 1.18082q-0.92371 1.1713-0.92371 3.32345z"/>
				<path d="m-756.96-250.222v0.65707l-2.14263 0.13332q0.85705 1.06655 0.85705 2.3426 0 1.49507-0.99989 2.4283-0.99037 0.92371-2.66637 0.92371-0.70469 0-0.99037-0.0571-0.56184 0.29521-0.85705 0.69517-0.2952 0.39995-0.2952 0.84752 0 0.49519 0.37138 0.72373 0.38091 0.22855 1.26653 0.22855h1.80933q1.68553 0 2.58067 0.68564 0.89514 0.67611 0.89514 2.0093 0 1.63792-1.33319 2.52353-1.32367 0.89514-3.78054 0.89514-1.95217 0-3.02824-0.75229-1.06655-0.7523-1.06655-2.09501 0-1.06655 0.65707-1.77124 0.6666-0.70468 1.79981-0.9618-0.46662-0.19997-0.7523-0.56184-0.27616-0.37139-0.27616-0.84753 0-1.03798 1.32366-1.82837-0.90466-0.37138-1.40937-1.16177-0.5047-0.79992-0.5047-1.82837 0-1.55222 0.98084-2.48545 0.99037-0.94275 2.66637-0.94275 1.01894 0 1.58078 0.19998h3.31393zm-8.38004 12.1034q0 2.1331 3.17108 2.1331 4.07575 0 4.07575-2.59971 0-0.93323-0.63803-1.35224-0.63802-0.419-2.06644-0.419h-1.69505q-2.84731 0-2.84731 2.23785zm0.79039-8.87521q0 1.19986 0.72373 1.86646 0.73326 0.65707 1.95217 0.65707 1.29509 0 1.98073-0.65707 0.69517-0.65707 0.69517-1.90456 0-1.32366-0.71421-1.98073-0.70469-0.66659-1.98074-0.66659-1.23796 0-1.95216 0.7142-0.70469 0.70469-0.70469 1.97122z"/>
			</g>
		</g>
		<g transform="matrix(.417385 0 0 .417385 -930.398 3470.66)">
			<g transform="matrix(.450788 -.234089 0 .294413 68.3622 -9193.33)" fill="#ffffff">
				<g>
					<rect ry="1.42335" height="10" width="10" y="1002.36" x="0"/>
					<rect ry="1.42335" height="10" width="10" y="1002.36" x="12"/>
					<rect ry="1.42335" height="10" width="10" y="1002.36" x="24"/>
				</g>
				<g transform="translate(0 12)">
					<rect ry="1.42335" height="10" width="10" y="1002.36" x="0"/>
					<rect ry="1.42335" height="10" width="10" y="1002.36" x="12"/>
					<rect ry="1.42335" height="10" width="10" y="1002.36" x="24"/>
				</g>
				<g transform="translate(0 24)">
					<rect ry="1.42335" height="10" width="10" y="1002.36" x="0"/>
					<rect ry="1.42335" height="10" width="10" y="1002.36" x="12"/>
					<rect ry="1.42335" height="10" width="10" y="1002.36" x="24"/>
				</g>
				<g transform="translate(0 36)">
					<rect ry="1.42335" height="10" width="10" y="1002.36" x="12" fill="#ffffff"/>
				</g>
				<rect ry="1.21382" height="15" width="34" y="983.362" x="0"/>
			</g>
			<path d="m61.9226-8933.66v1.5481c3.39051 0 23.9746 10.9372 23.9746 12.7386 0 1.8016-20.5841 12.7387-23.9746 12.7387v27.0254c0.630596 0 1.25761-0.2076 2.13898-0.5209 0.881369-0.3132 1.95199-0.7534 3.15467-1.2866 2.40535-1.0663 5.33418-2.5034 8.21903-4.0124 2.88485-1.5091 5.72284-3.0887 7.9448-4.4429 1.11098-0.6771 2.06693-1.2969 2.80703-1.8318 0.740107-0.5349 1.25172-0.9233 1.56702-1.4181 0.315303-0.4949 0.43112-1.0908 0.572382-1.939 0.141254-0.8482 0.255521-1.9081 0.347219-3.1184 0.183396-2.4205 0.274223-5.4371 0.274223-8.4553s-0.09083-6.0344-0.274223-8.4549c-0.0917-1.2103-0.205965-2.2711-0.347219-3.1192-0.141262-0.8482-0.257079-1.4437-0.572382-1.9386-0.315294-0.4948-0.82691-0.8832-1.56702-1.4181-0.740108-0.5349-1.69606-1.1547-2.80703-1.8318-2.22196-1.3542-5.05995-2.9338-7.9448-4.4429-2.88486-1.509-5.81368-2.9465-8.21903-4.0129-1.20268-0.5331-2.2733-0.9733-3.15467-1.2865-0.881361-0.3133-1.50839-0.5205-2.13898-0.5205zm21.5255 22.0703c0.145504-0.011 0.240826 0.048 0.240826 0.1715v3.7016c0 0.1979-0.244084 0.4837-0.547217 0.6411l-14.2323 7.391c-0.303134 0.1574-0.547217 0.1247-0.547217-0.073v-3.7015c0-0.198 0.244083-0.4843 0.547217-0.6417l14.2323-7.3906c0.113675-0.059 0.219092-0.091 0.306391-0.098zm-0.04164 5.626c0.170617-0.013 0.282472 0.056 0.282472 0.2009v2.106c0 0.2321-0.286192 0.5676-0.64165 0.7521l-3.22436 1.6747c-0.355459 0.1846-0.64165 0.1464-0.64165-0.086v-2.106c0-0.2321 0.286191-0.5675 0.64165-0.7521l3.22436-1.6747c0.1333-0.069 0.256801-0.1069 0.359178-0.115zm-5.40911 2.8091c0.170617-0.013 0.282062 0.056 0.282062 0.2009v2.106c0 0.2321-0.286191 0.5675-0.641659 0.7522l-3.22435 1.6746c-0.355468 0.1846-0.641659 0.1463-0.641659-0.086v-2.106c0-0.2322 0.286191-0.5676 0.641659-0.7522l3.22435-1.6746c0.133301-0.069 0.25722-0.107 0.359597-0.1151zm5.40911 0.7237c0.170617-0.013 0.282472 0.056 0.282472 0.2009v2.1064c0 0.2322-0.286192 0.5675-0.64165 0.7522l-3.22436 1.6742c-0.355459 0.1846-0.64165 0.1464-0.64165-0.086v-2.106c0-0.2322 0.286191-0.5676 0.64165-0.7522l3.22436-1.6747c0.1333-0.069 0.256801-0.1069 0.359178-0.115zm-10.8186 2.0854c0.170626-0.014 0.28248 0.056 0.28248 0.2008v2.106c0 0.2322-0.286191 0.5676-0.641659 0.7522l-3.22477 1.6746c-0.355459 0.1846-0.64165 0.1465-0.64165-0.085v-2.106c0-0.2322 0.286191-0.568 0.64165-0.7526l3.22477-1.6743c0.133301-0.069 0.25681-0.107 0.359179-0.115zm5.40953 0.7237c0.170617-0.013 0.282062 0.056 0.282062 0.2008v2.106c0 0.2322-0.286191 0.568-0.641659 0.7526l-3.22435 1.6743c-0.355468 0.1846-0.641659 0.1464-0.641659-0.086v-2.106c0-0.2322 0.286191-0.5676 0.641659-0.7522l3.22435-1.6746c0.133301-0.069 0.25722-0.1071 0.359597-0.1151zm5.40911 0.7237c0.170617-0.013 0.282472 0.057 0.282472 0.2013v2.106c0 0.2322-0.286192 0.5676-0.64165 0.7522l-3.22436 1.6746c-0.355459 0.1846-0.64165 0.146-0.64165-0.086v-2.106c0-0.2321 0.286191-0.5676 0.64165-0.7522l3.22436-1.6742c0.1333-0.069 0.256801-0.1074 0.359178-0.1155zm-10.8186 2.0855c0.170626-0.014 0.28248 0.056 0.28248 0.2007v2.106c0 0.2322-0.286191 0.5681-0.641659 0.7526l-3.22477 1.6742c-0.355459 0.1846-0.64165 0.1465-0.64165-0.085v-2.106c0-0.2322 0.286191-0.5676 0.64165-0.7522l3.22477-1.6747c0.133301-0.069 0.25681-0.107 0.359179-0.115zm5.40953 0.7236c0.170617-0.013 0.282062 0.057 0.282062 0.2013v2.106c0 0.2322-0.286191 0.5676-0.641659 0.7521l-3.22435 1.6747c-0.355468 0.1846-0.641659 0.146-0.641659-0.086v-2.106c0-0.2321 0.286191-0.5675 0.641659-0.7521l3.22435-1.6743c0.133301-0.069 0.25722-0.1073 0.359597-0.1154zm-5.40953 2.8091c0.170626-0.013 0.28248 0.057 0.28248 0.2013v2.106c0 0.2321-0.286191 0.5676-0.641659 0.7522l-3.22477 1.6746c-0.355459 0.1846-0.64165 0.146-0.64165-0.086v-2.106c0-0.2322 0.286191-0.5676 0.64165-0.7522l3.22477-1.6747c0.133301-0.069 0.25681-0.107 0.359179-0.1151zm5.40953 0.7242c0.170617-0.014 0.282062 0.056 0.282062 0.2008v2.106c0 0.2322-0.286191 0.5676-0.641659 0.7521l-3.22435 1.6747c-0.355468 0.1847-0.641659 0.1464-0.641659-0.085v-2.106c0-0.2321 0.286191-0.5676 0.641659-0.7521l3.22435-1.6747c0.133301-0.069 0.25722-0.107 0.359597-0.1151z" fill="#797979"/>
			<path d="m34.8972-8906.63c0 3.0182 0.09084 6.0348 0.274231 8.4553 0.0917 1.2103 0.205957 2.2702 0.347219 3.1184s0.256662 1.4441 0.571964 1.939c0.315303 0.4948 0.827328 0.8832 1.56744 1.4181 0.740107 0.5349 1.69605 1.1547 2.80703 1.8318 2.22195 1.3542 5.05953 2.9338 7.94439 4.4429 2.88485 1.509 5.81408 2.9461 8.21944 4.0124 1.20268 0.5332 2.2733 0.9734 3.15466 1.2866 0.881369 0.3133 1.50839 0.5209 2.13899 0.5209v-27.0254c-3.39051 0-23.9746-10.9371-23.9746-12.7387 0-1.8014 20.5841-12.7386 23.9746-12.7386v-1.5481c-0.630596 0-1.25762 0.2072-2.13899 0.5205-0.881361 0.3132-1.95198 0.7534-3.15466 1.2865-2.40536 1.0664-5.33459 2.5039-8.21944 4.0129-2.88486 1.5091-5.72244 3.0887-7.94439 4.4429-1.11098 0.6771-2.06693 1.2969-2.80703 1.8318-0.740108 0.5349-1.25213 0.9233-1.56744 1.4181-0.315302 0.4949-0.430702 1.0904-0.571964 1.9386-0.141262 0.8481-0.255521 1.9089-0.347219 3.1192-0.183395 2.4205-0.274231 5.4367-0.274231 8.4549z" fill="#626262"/>
		</g>
	</g>
</svg>
